<!--
  - Copyright (c) 2021 Marcin Gasperowicz <xnooga@gmail.com>
  - SPDX-License-Identifier: MIT
  -->

<svg xmlns="http://www.w3.org/2000/svg" width="395.852" height="565" viewBox="0 0 395.852 565"><g transform="translate(-762.102 -222)"><path d="M-2820.177,274.52a22.5,22.5,0,0,1-7.158-4.643,21.023,21.023,0,0,1-6.256-11.741q-11.361-1.495-21.963-3.83c-18.178-4.008-34.318-9.8-47.972-17.207a118.214,118.214,0,0,1-17.583-11.571,85.845,85.845,0,0,1-13.129-12.953,63.244,63.244,0,0,1-8.6-13.886,50.656,50.656,0,0,1-4.061-14.446c-.762-6.239-1.427-11.869-1.832-17.608q-.013-.183-.025-.365a65.356,65.356,0,0,1-1.113-12.041,65,65,0,0,1,65-65,64.773,64.773,0,0,1,44.69,17.8l47.8-110.373L-2811.816-49.8q-4.74-10.9-12.56-13.983A51.076,51.076,0,0,0-2843.1-66.86a85.894,85.894,0,0,0-23.225,3.318v-50.244a106.509,106.509,0,0,1,22.041-4.266q11.139-.948,21.092-.948,16.59,0,28.44,3.555a55.877,55.877,0,0,1,20.856,11.376,77.868,77.868,0,0,1,16.115,20.145,198.8,198.8,0,0,1,13.747,30.336l52.674,138.678a65.054,65.054,0,0,1,36.549,24.212q.871.542,1.758,1.106c3.916,2.489,8.617,7.523,13.6,14.56a185.234,185.234,0,0,1,13.811,23.463,211.822,211.822,0,0,1,10.409,24.289,101.53,101.53,0,0,1,2.961,9.912,30.706,30.706,0,0,1,1,6.751V191.6l1.876,1.175c6.363,3.989,10.818,7.921,13.239,11.688,1.976,3.074,2.54,5.949,1.723,8.789-.829,2.883-3.083,5.87-6.7,8.878a71.269,71.269,0,0,1-15.419,9.231,183.987,183.987,0,0,1-22.406,8.416c-8.236,2.562-17.481,4.992-27.48,7.222a586.144,586.144,0,0,1-62.433,10.106,21.243,21.243,0,0,1-5.534,8.774,22.517,22.517,0,0,1-7.158,4.642,23.26,23.26,0,0,1-8.806,1.708,23.351,23.351,0,0,1-10.742-2.6,22.363,22.363,0,0,1-7.913-6.872l-1.277-1.8-2.207.121c-1.93.106-3.9.159-5.861.159-2.811,0-5.627-.11-8.372-.328l-1.809-.143-1.032.006-1.12,2.478a21.791,21.791,0,0,1-8.123,9.338,23.131,23.131,0,0,1-12.544,3.649A23.264,23.264,0,0,1-2820.177,274.52Zm40.024-158.986c4.944-2.984,9.8-5.693,14.5-8.1,4.816-2.458,9.576-4.644,14.222-6.533l.342-.32-10.484-33.3h-1.422Z" transform="translate(3731.972 461.386)" fill="#fff" stroke="#fff" stroke-linejoin="round" stroke-width="40"/><g transform="translate(457.1 119)"><g transform="translate(324 421)" fill="#8bdbff"><path d="M 159.2711334228516 181.5403289794922 C 136.286865234375 181.5403289794922 114.7692489624023 179.3659820556641 95.31602478027344 175.0777587890625 C 77.13752746582031 171.0705413818359 60.99736022949219 165.2813720703125 47.34375 157.8711547851562 C 40.85858154296875 154.3514862060547 34.94280624389648 150.4581604003906 29.76069450378418 146.29931640625 C 24.70486068725586 142.2418212890625 20.28736114501953 137.8838195800781 16.63097190856934 133.3463745117188 C 13.04485988616943 128.8961486816406 10.15130424499512 124.2242660522461 8.030694007873535 119.4603805541992 C 5.932249069213867 114.7463226318359 4.566193580627441 109.8860473632812 3.970471382141113 105.0144348144531 C 3.207582473754883 98.77615356445312 2.543193578720093 93.14532470703125 2.138971328735352 87.40604400634766 C 1.681915760040283 80.91670989990234 1.652915835380554 75.3408203125 2.050304651260376 70.35982513427734 C 2.517193555831909 64.50837707519531 3.561638116836548 59.42276763916016 5.243415832519531 54.81243133544922 C 7.104804515838623 49.70959854125977 9.692693710327148 45.32759857177734 13.15502643585205 41.41609954833984 C 16.13830375671387 38.0457649230957 19.81886100769043 35.02493286132812 24.09441566467285 32.43743133544922 C 28.72524833679199 29.63493347167969 34.21702575683594 27.23987770080566 40.41708374023438 25.31893348693848 C 47.05424880981445 23.26248741149902 54.71002578735352 21.6847095489502 63.17169189453125 20.6293773651123 C 72.11630249023438 19.51382064819336 82.23302459716797 18.94820976257324 93.24080657958984 18.94820976257324 C 93.47824859619141 18.94820976257324 93.69985961914062 18.94843292236328 93.93846893310547 18.94893264770508 C 96.95008087158203 18.955322265625 98.80780792236328 20.0804328918457 100.3505859375 22.83237648010254 C 102.0504684448242 25.86470985412598 102.9866943359375 30.2282657623291 103.9778594970703 34.84804534912109 C 105.1145858764648 40.14593124389648 106.2899703979492 45.62421035766602 108.8553009033203 50.02009963989258 C 112.1119689941406 55.6005973815918 117.078857421875 58.43015289306641 123.6180801391602 58.43015289306641 C 128.0276947021484 58.43015289306641 133.1478576660156 57.16226577758789 139.2711334228516 54.55404281616211 C 145.6112518310547 51.85343170166016 152.8721313476562 47.79276657104492 161.4688110351562 42.13987731933594 C 169.6164703369141 36.78226470947266 177.6070251464844 32.09593200683594 185.2185211181641 28.21098899841309 C 192.4670257568359 24.51132202148438 199.5875244140625 21.42843246459961 206.3822479248047 19.04804420471191 C 212.8099670410156 16.79621124267578 219.143798828125 15.10404396057129 225.2077484130859 14.01859951019287 C 230.9043121337891 12.99893283843994 236.5481872558594 12.48187732696533 241.9825897216797 12.48187732696533 C 252.3028564453125 12.48187732696533 262.1849060058594 14.28382110595703 272.1934814453125 17.9907112121582 C 280.15380859375 20.93898773193359 288.2958679199219 25.13021087646484 297.8170776367188 31.18087768554688 C 301.7331848144531 33.66948699951172 306.4346313476562 38.70409774780273 311.4131469726562 45.74037551879883 C 316.0094299316406 52.23648834228516 320.7850952148438 60.35009765625 325.2239685058594 69.2041015625 C 329.3418579101562 77.41799163818359 333.0386352539062 86.04399108886719 335.63330078125 93.49310302734375 C 336.9198608398438 97.186767578125 337.9163513183594 100.521598815918 338.5950927734375 103.4048767089844 C 339.4220275878906 106.9179306030273 339.5956420898438 109.0152130126953 339.5956420898438 110.1559906005859 L 339.5956420898438 112.3698196411133 L 341.4715881347656 113.5454330444336 C 347.8352966308594 117.5333786010742 352.289794921875 121.4658737182617 354.7113037109375 125.2335968017578 C 356.6869812011719 128.3076477050781 357.2505187988281 131.1826019287109 356.4342041015625 134.0225982666016 C 355.6056518554688 136.9051513671875 353.3521423339844 139.8920440673828 349.7363586425781 142.9003143310547 C 345.9819641113281 146.0238800048828 340.7943115234375 149.1298217773438 334.3174133300781 152.1318817138672 C 328.0304260253906 155.0459289550781 320.4919738769531 157.8772125244141 311.9114685058594 160.5470428466797 C 303.6757507324219 163.1096038818359 294.4302978515625 165.5393829345703 284.4319763183594 167.7688751220703 C 265.4140930175781 172.0095977783203 243.6213531494141 175.5263214111328 221.4098052978516 177.9388732910156 C 199.7178039550781 180.2949371337891 178.2305755615234 181.5403289794922 159.2711334228516 181.5403289794922 Z" stroke="none"/><path d="M 241.9826202392578 8.481918334960938 L 241.9832458496094 16.48191833496094 C 218.9577484130859 16.48377990722656 193.3400573730469 25.9698486328125 163.6664886474609 45.48210144042969 C 146.0822448730469 57.04478454589844 133.3565673828125 62.43016052246094 123.6180419921875 62.43016052246094 C 105.8046875 62.43016052246094 102.2128601074219 45.68940734863281 100.0668640136719 35.68716430664062 C 97.71212768554688 24.7119140625 96.52679443359375 22.95440673828125 93.24081420898438 22.94816589355469 C 54.49160766601562 22.94816589355469 28.5545654296875 30.05366516113281 16.15023803710938 44.06729125976562 C 2.441131591796875 59.55497741699219 5.3629150390625 83.44828796386719 7.94085693359375 104.5289154052734 C 12.37762451171875 140.8109741210938 65.78323364257812 177.5403442382812 159.2711181640625 177.5403442382812 C 245.3001098632812 177.5403442382812 346.4762573242188 154.1863555908203 352.5898742675781 132.9175415039062 C 354.2791137695312 127.0407867431641 343.8918151855469 119.7826614379883 339.3475036621094 116.9348449707031 L 335.5956115722656 114.5837249755859 L 335.5956115722656 110.1559753417969 C 335.5956115722656 95.59085083007812 311.5421142578125 44.64222717285156 295.671630859375 34.55679321289062 C 281.6070556640625 25.61891174316406 264.2306213378906 16.48191833496094 241.9902496337891 16.48191833496094 L 241.9826202392578 8.481918334960938 M 241.9826049804688 8.481887817382812 C 265.3238525390625 8.479965209960938 283.5816650390625 17.39503479003906 299.9624328613281 27.80485534667969 C 318.6842956542969 39.70228576660156 343.5956115722656 94.07460021972656 343.5956115722656 110.1559753417969 C 413.1476745605469 153.7419128417969 255.6448059082031 185.5403442382812 159.2711181640625 185.5403442382812 C 62.89743041992188 185.5403442382812 5.174041748046875 147.8109130859375 0 105.4999771118164 C -5.162078857421875 63.2872314453125 -10.13327026367188 14.94816589355469 93.24081420898438 14.94816589355469 C 93.48114013671875 14.94816589355469 93.70538330078125 14.94839477539062 93.94686889648438 14.94891357421875 C 114.1363525390625 14.99165344238281 101.444580078125 54.43014526367188 123.6180725097656 54.43014526367188 C 130.9180908203125 54.43014526367188 141.9950866699219 50.15782165527344 159.2711181640625 38.7977294921875 C 193.2016296386719 16.48626708984375 219.873046875 8.48370361328125 241.9826049804688 8.481887817382812 Z" stroke="none" fill="#000"/></g><g transform="translate(-242 6)"><text transform="translate(624 559)" font-size="474" font-family="HelveticaNeue-Bold, Helvetica Neue" font-weight="700"><tspan x="0" y="0">λ</tspan></text><g transform="translate(741 415)" fill="#fff" stroke="#000" stroke-width="8"><circle cx="69" cy="69" r="69" stroke="none"/><circle cx="69" cy="69" r="65" fill="none"/></g><circle cx="29" cy="29" r="29" transform="translate(799 441)"/><circle cx="11.5" cy="11.5" r="11.5" transform="translate(810 461)" fill="#fff"/><g transform="translate(563 421)" fill="#fff" stroke="#000" stroke-width="8"><circle cx="69" cy="69" r="69" stroke="none"/><circle cx="69" cy="69" r="65" fill="none"/></g><circle cx="29" cy="29" r="29" transform="translate(586 443)"/><circle cx="11.5" cy="11.5" r="11.5" transform="translate(601 467)" fill="#fff"/></g><g transform="translate(437 571)" fill="#ffeda3" stroke="#000" stroke-width="8"><ellipse cx="26.5" cy="25.5" rx="26.5" ry="25.5" stroke="none"/><ellipse cx="26.5" cy="25.5" rx="22.5" ry="21.5" fill="none"/></g><g transform="translate(498 567)" fill="#ffeda3" stroke="#000" stroke-width="8"><ellipse cx="26.5" cy="25.5" rx="26.5" ry="25.5" stroke="none"/><ellipse cx="26.5" cy="25.5" rx="22.5" ry="21.5" fill="none"/></g><g transform="translate(445 559)" fill="#d8b34f" stroke="#000" stroke-width="8"><ellipse cx="51.5" cy="24" rx="51.5" ry="24" stroke="none"/><ellipse cx="51.5" cy="24" rx="47.5" ry="20" fill="none"/></g><ellipse cx="27.5" cy="18" rx="27.5" ry="18" transform="translate(469 541)"/></g></g></svg>